<?xml version="1.0" encoding="utf-8"?>
<!-- Generator: Adobe Illustrator 24.0.1, SVG Export Plug-In . SVG Version: 6.00 Build 0)  -->
<svg version="1.1" id="图层_1" xmlns="http://www.w3.org/2000/svg" xmlns:xlink="http://www.w3.org/1999/xlink" x="0px" y="0px"
	 viewBox="0 0 16 16" style="enable-background:new 0 0 16 16;" xml:space="preserve">
<style type="text/css">
	.st0{fill:#F9C854;}
	.st1{fill:#F9D976;}
	.st2{fill:#FFFFFF;}
</style>
<g>
	<path class="st0" d="M2.3,2h3.8C6.6,2,7,2.2,7.3,2.6L11,7.4H1V3.2C1,2.5,1.6,2,2.3,2L2.3,2z"/>
	<path class="st1" d="M2.6,4.1h10.9c0.6,0,0.8,0.1,1,0.2c0.2,0.1,0.4,0.3,0.5,0.5c0.1,0.2,0.2,0.4,0.2,1v6.7c0,0.6-0.1,0.8-0.2,1
		c-0.1,0.2-0.3,0.4-0.5,0.5c-0.2,0.1-0.4,0.2-1,0.2H2.6c-0.6,0-0.8-0.1-1-0.2c-0.2-0.1-0.4-0.3-0.5-0.5c-0.1-0.2-0.2-0.4-0.2-1V5.8
		c0-0.6,0.1-0.8,0.2-1c0.1-0.2,0.3-0.4,0.5-0.5C1.9,4.2,2.1,4.1,2.6,4.1L2.6,4.1z"/>
	<path class="st2" d="M8.1,8.6c0.7,0,1.2-0.6,1.2-1.2c0-0.7-0.6-1.2-1.2-1.2c-0.7,0-1.2,0.6-1.2,1.2C6.9,8.1,7.4,8.6,8.1,8.6
		L8.1,8.6z M8.6,8.7H7.6C6.7,8.7,6,9.4,6,10.3v1.3l0.1,0C6.8,11.8,7.5,12,8.2,12c1.2,0,1.9-0.3,1.9-0.4l0.1,0h0v-1.3
		C10.2,9.4,9.5,8.7,8.6,8.7L8.6,8.7z"/>
</g>
</svg>
