<?xml version="1.0" encoding="utf-8"?>
<!-- Generator: Adobe Illustrator 24.0.1, SVG Export Plug-In . SVG Version: 6.00 Build 0)  -->
<svg version="1.1" id="图层_1" xmlns="http://www.w3.org/2000/svg" xmlns:xlink="http://www.w3.org/1999/xlink" x="0px" y="0px"
	 viewBox="0 0 16 16" style="enable-background:new 0 0 16 16;" xml:space="preserve">
<style type="text/css">
	.st0{fill:#707070;}
</style>
<g>
	<g>
		<path class="st0" d="M2.4,13.5h11.3V10h1.4v4.3c0,0.2-0.1,0.4-0.2,0.5c-0.1,0.1-0.3,0.2-0.5,0.2H1.7c-0.2,0-0.4-0.1-0.5-0.2
			C1.1,14.6,1,14.4,1,14.2V10h1.4L2.4,13.5L2.4,13.5z M5.8,6.4l2.8,2.8l-1,1L3.1,5.7l4.5-4.5l1,1L5.8,5h7.9v1.4
			C13.7,6.4,5.8,6.4,5.8,6.4z"/>
	</g>
</g>
</svg>
