<?xml version="1.0" encoding="utf-8"?>
<!-- Generator: Adobe Illustrator 24.0.1, SVG Export Plug-In . SVG Version: 6.00 Build 0)  -->
<svg version="1.1" id="图层_1" xmlns="http://www.w3.org/2000/svg" xmlns:xlink="http://www.w3.org/1999/xlink" x="0px" y="0px"
	 viewBox="0 0 16 16" style="enable-background:new 0 0 16 16;" xml:space="preserve">
<style type="text/css">
	.st0{fill:#F9C854;}
	.st1{fill:#F9D976;}
	.st2{fill:#FFFFFF;}
</style>
<g>
	<path class="st0" d="M2.3,2h3.8C6.6,2,7,2.2,7.3,2.6L11,7.4H1V3.2C1,2.5,1.6,2,2.3,2L2.3,2z"/>
	<path class="st1" d="M2.6,4.1h10.9c0.6,0,0.8,0.1,1,0.2c0.2,0.1,0.4,0.3,0.5,0.5c0.1,0.2,0.2,0.4,0.2,1v6.7c0,0.6-0.1,0.8-0.2,1
		c-0.1,0.2-0.3,0.4-0.5,0.5c-0.2,0.1-0.4,0.2-1,0.2H2.6c-0.6,0-0.8-0.1-1-0.2c-0.2-0.1-0.4-0.3-0.5-0.5c-0.1-0.2-0.2-0.4-0.2-1V5.8
		c0-0.6,0.1-0.8,0.2-1c0.1-0.2,0.3-0.4,0.5-0.5C1.9,4.2,2.1,4.1,2.6,4.1L2.6,4.1z"/>
	<path class="st2" d="M8.8,7.2c0.3,0.2,0.6,0.6,0.6,1c0.4,0.2,0.9,0.1,1.2-0.3C11,7.5,11,7,10.8,6.6C10.5,6.2,10.1,6,9.6,6.2
		C9.2,6.3,8.8,6.7,8.8,7.2L8.8,7.2z M8.1,9.3c0.6,0,1.1-0.5,1.1-1c0-0.6-0.5-1-1.1-1c-0.6,0-1.1,0.5-1.1,1C7.1,8.8,7.6,9.3,8.1,9.3
		L8.1,9.3z M8.6,9.4H7.7C7,9.4,6.3,10,6.3,10.7v1.1l0.1,0C7,12,7.6,12.1,8.3,12.1c1,0,1.6-0.3,1.6-0.3l0.1,0h0v-1.1
		C9.9,10,9.3,9.4,8.6,9.4L8.6,9.4z M10.3,8.3H9.5c0,0.3-0.1,0.7-0.4,0.9c0.7,0.2,1.1,0.8,1.1,1.5v0.3c0.5,0,1-0.1,1.4-0.3l0.1,0h0
		V9.6C11.7,8.9,11.1,8.3,10.3,8.3L10.3,8.3z M6.3,8.2c0.2,0,0.4-0.1,0.6-0.2c0.1-0.3,0.2-0.6,0.5-0.8V7.2c0-0.6-0.5-1-1.1-1
		s-1.1,0.5-1.1,1C5.2,7.7,5.7,8.2,6.3,8.2L6.3,8.2L6.3,8.2L6.3,8.2z M7.2,9.2C7,9,6.8,8.6,6.8,8.3h-1c-0.7,0-1.3,0.6-1.4,1.3v1.1
		l0.1,0c0.5,0.2,1,0.3,1.5,0.3v-0.3C6.1,10,6.6,9.4,7.2,9.2L7.2,9.2L7.2,9.2z"/>
</g>
</svg>
