<?xml version="1.0" encoding="utf-8"?>
<!-- Generator: Adobe Illustrator 24.0.1, SVG Export Plug-In . SVG Version: 6.00 Build 0)  -->
<svg version="1.1" id="图层_1" xmlns="http://www.w3.org/2000/svg" xmlns:xlink="http://www.w3.org/1999/xlink" x="0px" y="0px"
	 viewBox="0 0 16 16" style="enable-background:new 0 0 16 16;" xml:space="preserve">
<style type="text/css">
	.st0{fill:#707070;}
</style>
<path class="st0" d="M8.4,6.1C8,6.5,8,7.1,8.4,7.5C9,8.1,9,9,8.4,9.6l-3,3c-0.5,0.6-1.5,0.7-2.1,0.2c-0.6-0.5-0.7-1.5-0.2-2.1
	c0-0.1,0.1-0.1,0.2-0.2L4,9.8c0.4-0.4,0.4-1.1,0-1.4C3.6,8,2.9,8,2.5,8.4L1.9,9.1c-1.3,1.4-1.2,3.7,0.2,5c1.4,1.3,3.5,1.3,4.8,0l3-3
	c1.4-1.4,1.4-3.6,0-5C9.5,5.7,8.9,5.7,8.4,6.1L8.4,6.1z"/>
<path class="st0" d="M14,2c-1.4-1.3-3.6-1.3-5,0l-3,3c-1.4,1.4-1.4,3.6,0,5c0.4,0.4,1.1,0.4,1.4,0c0.4-0.4,0.4-1.1,0-1.4
	C6.9,7.9,6.9,7,7.5,6.4l3-3c0.6-0.6,1.5-0.6,2.1,0c0.6,0.6,0.6,1.5,0,2.1l-0.7,0.7c-0.4,0.4-0.4,1.1,0,1.4C12.3,8,13,8,13.4,7.6
	l0.7-0.7C15.4,5.6,15.4,3.3,14,2z"/>
</svg>
